<svg xmlns="http://www.w3.org/2000/svg" width="70" height="70" viewBox="0 0 70 70">
    <g fill="none" fill-rule="evenodd">
        <g>
            <path fill="#FFF" d="M68 34c0 18.777-15.223 34-34 34S0 52.777 0 34 15.223 0 34 0s34 15.223 34 34z" transform="translate(1 1)"/>
            <path fill="#6285FF" fill-rule="nonzero" d="M34-1C14.67-1-1 14.67-1 34s15.67 35 35 35 35-15.67 35-35S53.33-1 34-1zm0 2c18.225 0 33 14.775 33 33S52.225 67 34 67 1 52.225 1 34 15.775 1 34 1z" transform="translate(1 1)"/>
            <path fill="#E7ECFF" d="M23.88 53.312l-10.145 5.534c-.596.324-1.13.723-1.628 1.16C18.023 64.99 25.657 68 34 68c8.28 0 15.867-2.964 21.765-7.883-.544-.46-1.134-.872-1.788-1.2l-10.864-5.43c-1.403-.702-2.29-2.137-2.29-3.706v-4.263c.305-.347.654-.795 1.028-1.32 1.48-2.092 2.6-4.392 3.377-6.806 1.392-.43 2.418-1.716 2.418-3.246v-4.55c0-1-.444-1.894-1.137-2.52v-6.577S47.86 10.264 34 10.264 21.49 20.5 21.49 20.5v6.577c-.692.626-1.136 1.52-1.136 2.52v4.55c0 1.199.63 2.253 1.572 2.861 1.136 4.95 4.113 8.51 4.113 8.51v4.158c0 1.516-.828 2.91-2.16 3.637z" transform="translate(1 1)"/>
            <path fill="#6285FF" fill-rule="nonzero" d="M34 9.264c-6.356 0-10.334 2.064-12.283 5.553-.693 1.24-1.07 2.564-1.207 3.893l-.024.267c-.042.52-.041.97-.018 1.322l.022.254v6.112l-.019.02c-.71.798-1.117 1.822-1.117 2.912v4.55l.006.237c.068 1.259.677 2.411 1.644 3.19l.038.028-.091-.37c.413 1.796 1.078 3.531 1.925 5.176.518 1.007 1.074 1.92 1.63 2.723l.24.34.292.394v3.81c0 1.15-.627 2.208-1.637 2.759l-10.145 5.534c-.626.341-1.215.766-1.808 1.285-.46.404-.454 1.123.014 1.517C17.731 66.053 25.64 69 34 69c8.3 0 16.157-2.903 22.406-8.115.477-.398.48-1.13.004-1.532-.64-.54-1.293-.983-1.986-1.33L43.56 52.592l-.183-.1c-.958-.56-1.554-1.59-1.554-2.71v-3.898l.094-.114c.237-.293.489-.627.75-.994l.343-.498c1.237-1.841 2.232-3.853 2.974-5.993l.042-.128.088-.039c1.516-.717 2.532-2.246 2.532-3.972v-4.55l-.007-.25c-.057-.995-.454-1.925-1.11-2.66l-.02-.021v-6.11l.016-.178c.118-1.639-.166-3.588-1.195-5.474-1.928-3.539-5.918-5.639-12.33-5.639zm0 2c5.716 0 9.016 1.738 10.574 4.596.764 1.4 1.015 2.873.97 4.112l-.035.527v6.577c0 .282.12.552.33.741.513.464.807 1.1.807 1.78v4.55c0 1.052-.703 1.978-1.713 2.29-.312.096-.557.338-.657.65-.76 2.364-1.847 4.563-3.241 6.533-.352.496-.68.917-.962 1.236-.161.183-.25.418-.25.662v4.263c0 1.948 1.1 3.729 2.843 4.6l10.863 5.431.324.173.272.163-.226.176C48.22 64.624 41.294 67 34 67l-.537-.004c-7.15-.115-13.921-2.514-19.482-6.767l-.263-.205.205-.132c.096-.06.193-.115.29-.168l10.145-5.534c1.653-.901 2.68-2.633 2.68-4.515v-4.157c0-.235-.082-.462-.232-.642l-.182-.23-.261-.352-.212-.301c-.51-.736-1.02-1.575-1.497-2.5-.775-1.505-1.381-3.086-1.754-4.71-.058-.253-.213-.474-.432-.616-.69-.445-1.114-1.2-1.114-2.02v-4.55c0-.68.294-1.316.807-1.78.21-.19.33-.459.33-.742v-6.58l-.009-.123-.016-.198-.009-.203c-.008-.32.003-.675.042-1.056.11-1.074.415-2.14.964-3.122 1.575-2.819 4.87-4.529 10.537-4.529z" transform="translate(1 1)"/>
        </g>
    </g>
</svg>
